<svg width="204" height="62" viewBox="0 0 204 62" fill="none" xmlns="http://www.w3.org/2000/svg">
<path d="M55.7679 9.05327H45.4307C42.0369 9.05327 38.7517 10.2239 36.1179 12.3668L19.2716 26.093C18.4172 26.7869 17.1428 26.5131 16.6519 25.5313L11.455 15.1328C11.0774 14.3776 10.3033 13.9009 9.45839 13.9009H0.69777C0.320158 13.9009 0.0133468 13.5941 0.0133468 13.2164L0.00390625 5.53203C0.00390625 5.15442 0.310715 4.84288 0.688328 4.84288H7.3532C8.65124 4.84288 9.84072 5.57923 10.426 6.74039L15.6748 17.2427C15.9675 17.8328 16.7369 17.998 17.2467 17.5826L35.0369 3.08699C37.4867 1.09036 40.5501 0 43.7079 0H55.7773C56.1549 0 56.4665 0.306812 56.4617 0.689145L56.4523 8.37356C56.4523 8.75118 56.1455 9.05799 55.7679 9.05799V9.05327Z" fill="#73929B"/>
<path d="M55.7785 25.3143H48.061C44.705 25.3143 41.448 26.4707 38.8472 28.5948L21.9585 42.354C21.1042 43.0479 19.8297 42.7741 19.3388 41.7923L14.09 31.2994C13.7407 30.6008 13.028 30.1619 12.2491 30.1619H0.703631C0.326019 30.1619 0.0192062 29.855 0.0192062 29.4774L0.00976562 21.793C0.00976562 21.4154 0.316576 21.1039 0.694189 21.1039H10.0354C11.3334 21.1039 12.5229 21.8402 13.1082 23.0014L18.357 33.5037C18.6497 34.0938 19.4191 34.259 19.9288 33.8436L37.7191 19.348C40.1689 17.3513 43.2323 16.261 46.3901 16.261H55.7879C56.1655 16.261 56.477 16.5678 56.4723 16.9501L56.4629 24.6345C56.4629 25.0122 56.1561 25.319 55.7785 25.319V25.3143Z" fill="#73929B"/>
<path d="M55.7829 41.5751H50.7417C47.3857 41.5751 44.1288 42.7316 41.528 44.8556L24.6392 58.6149C23.7849 59.3088 22.5104 59.035 22.0195 58.0532L16.7707 47.5603C16.4214 46.8617 15.7087 46.4227 14.9299 46.4227H0.693864C0.316251 46.4227 0.00944054 46.1159 0.00944054 45.7383L0 38.0539C0 37.6763 0.306813 37.3647 0.684425 37.3647H12.7208C14.0189 37.3647 15.2084 38.1011 15.7937 39.2622L21.0425 49.7646C21.3351 50.3546 22.1045 50.5198 22.6143 50.1044L40.4046 35.6088C42.8543 33.6122 45.9177 32.5219 49.0755 32.5219H55.797C56.1746 32.5219 56.4862 32.8287 56.4814 33.211L56.472 40.8954C56.472 41.273 56.1652 41.5798 55.7876 41.5798L55.7829 41.5751Z" fill="#73929B"/>
<path d="M111.779 16.2562H106.025C105.775 16.2562 105.572 16.4592 105.572 16.7094V19.8955C105.572 20.1456 105.775 20.3486 106.025 20.3486H107.375C107.626 20.3486 107.829 20.5516 107.829 20.8017V40.1166C107.829 40.9143 108.475 41.5657 109.278 41.5657H112.959C113.209 41.5657 113.412 41.3628 113.412 41.1126V17.8847C113.412 16.9831 112.686 16.2562 111.784 16.2562H111.779Z" fill="#007179"/>
<path d="M129.701 26.2016V23.4686C129.701 22.9683 129.295 22.5623 128.795 22.5623H124.334C124.235 22.5623 124.155 22.4821 124.155 22.383V18.3378C124.155 17.8375 123.749 17.4315 123.249 17.4315H119.44C119.19 17.4315 118.987 17.6345 118.987 17.8847L118.977 22.383C118.977 22.4821 118.897 22.5623 118.798 22.5623H116.527C116.277 22.5623 116.074 22.7653 116.074 23.0155V26.2016C116.074 26.4517 116.277 26.6547 116.527 26.6547H118.788C118.887 26.6547 118.968 26.735 118.968 26.8341L118.954 34.1409C118.954 36.062 119.232 37.5772 119.784 38.7006C120.341 39.8192 121.205 40.6264 122.385 41.1078C123.565 41.594 125.113 41.8347 127.03 41.8347H129.248C129.498 41.8347 129.701 41.6318 129.701 41.3816V38.0256C129.701 37.5252 129.295 37.1193 128.795 37.1193H126.893C126.015 37.1193 125.34 36.8833 124.863 36.4066C124.391 35.9345 124.15 35.2454 124.15 34.3439V26.8294C124.15 26.7302 124.231 26.65 124.33 26.65H129.243C129.494 26.65 129.697 26.447 129.697 26.1969L129.701 26.2016Z" fill="#007179"/>
<path d="M81.8385 16.9264L76.6133 36.6803C76.5708 36.8408 76.4292 36.9494 76.264 36.9494H75.622C75.4616 36.9494 75.3199 36.8408 75.2727 36.685L69.6227 16.9076C69.5094 16.5205 69.1554 16.2515 68.7542 16.2515H64.152C63.85 16.2515 63.6328 16.5441 63.7178 16.8368L70.9585 40.5367C71.1426 41.1456 71.7043 41.561 72.3415 41.561H79.4312C80.0779 41.561 80.649 41.1314 80.8237 40.5084L87.5357 16.8273C87.616 16.5394 87.3988 16.2515 87.1015 16.2515H82.7117C82.3011 16.2515 81.9423 16.53 81.8385 16.9264Z" fill="#007179"/>
<path d="M102.811 25.5974C102.117 24.4787 101.107 23.6385 99.7757 23.0862C98.4446 22.5293 96.8114 22.2555 94.8714 22.2555C94.2012 22.2555 93.4837 22.2697 92.7238 22.2885C91.9591 22.3121 91.2228 22.3452 90.5053 22.3924C90.1277 22.416 89.769 22.4396 89.4338 22.4679C88.9618 22.5009 88.5984 22.8974 88.5984 23.3694V26.7302C88.5984 26.9898 88.8155 27.1975 89.0751 27.1833C89.6651 27.1503 90.3118 27.1173 91.0056 27.0889C91.893 27.0559 92.7568 27.0276 93.5876 27.004C94.4183 26.9804 95.0886 26.9709 95.5984 26.9709C96.6132 26.9709 97.3542 27.2069 97.8168 27.6837C98.1992 28.0755 98.4257 28.6655 98.4918 29.4207C98.5154 29.685 98.3077 29.9163 98.0434 29.9163H95.0838C93.3988 29.9163 91.9072 30.1334 90.6139 30.563C89.3205 30.9925 88.3151 31.6486 87.5977 32.5407C86.8802 33.4281 86.5215 34.5704 86.5215 35.9534C86.5215 37.2231 86.8094 38.3182 87.39 39.2292C87.9659 40.1402 88.773 40.8435 89.7973 41.3249C90.8263 41.8111 92.0205 42.0518 93.3846 42.0518C94.7487 42.0518 95.8155 41.8111 96.7312 41.3249C97.6422 40.8388 98.3596 40.1449 98.8789 39.2433C99.0299 38.979 99.1621 38.7005 99.2754 38.3984C99.3131 38.304 99.45 38.3324 99.45 38.4315V41.1125C99.45 41.3627 99.653 41.5657 99.9031 41.5657H103.132C103.533 41.5657 103.854 41.24 103.854 40.8435V29.921C103.854 28.1651 103.509 26.7255 102.815 25.6068L102.811 25.5974ZM96.7265 37.8698C96.2309 38.0916 95.6692 38.2002 95.0461 38.2002C94.0737 38.2002 93.328 37.9642 92.8087 37.4874C92.2895 37.0154 92.0299 36.3971 92.0299 35.6324C92.0299 34.8253 92.2895 34.1833 92.8087 33.7066C93.328 33.2346 94.0737 32.9939 95.0461 32.9939H98.0623C98.3125 32.9939 98.5154 33.1968 98.5154 33.447V34.5185C98.4682 35.4672 98.2841 36.2036 97.9584 36.7369C97.6327 37.2703 97.2268 37.6432 96.7265 37.8651V37.8698Z" fill="#007179"/>
<path d="M199.176 25.5974C198.482 24.4787 197.472 23.6385 196.141 23.0862C194.81 22.5293 193.177 22.2555 191.237 22.2555C190.566 22.2555 189.849 22.2697 189.089 22.2885C188.324 22.3121 187.588 22.3452 186.871 22.3924C186.493 22.416 186.134 22.4396 185.799 22.4679C185.327 22.5009 184.964 22.8974 184.964 23.3694V26.7302C184.964 26.9898 185.181 27.1975 185.44 27.1833C186.03 27.1503 186.677 27.1173 187.371 27.0889C188.258 27.0559 189.122 27.0276 189.953 27.004C190.784 26.9804 191.454 26.9709 191.964 26.9709C192.978 26.9709 193.719 27.2069 194.182 27.6837C194.564 28.0755 194.791 28.6655 194.857 29.4207C194.881 29.685 194.673 29.9163 194.409 29.9163H191.449C189.764 29.9163 188.272 30.1334 186.979 30.563C185.686 30.9925 184.68 31.6486 183.963 32.5407C183.245 33.4281 182.887 34.5704 182.887 35.9534C182.887 37.2231 183.175 38.3182 183.755 39.2292C184.331 40.1402 185.138 40.8435 186.163 41.3249C187.192 41.8111 188.386 42.0518 189.75 42.0518C191.114 42.0518 192.181 41.8111 193.096 41.3249C194.007 40.8388 194.725 40.1449 195.244 39.2433C195.395 38.979 195.527 38.7005 195.641 38.3984C195.678 38.304 195.815 38.3324 195.815 38.4315V41.1125C195.815 41.3627 196.018 41.5657 196.268 41.5657H199.497C199.898 41.5657 200.219 41.24 200.219 40.8435V29.921C200.219 28.1651 199.875 26.7255 199.181 25.6068L199.176 25.5974ZM193.092 37.8698C192.596 38.0916 192.034 38.2002 191.411 38.2002C190.439 38.2002 189.693 37.9642 189.174 37.4874C188.655 37.0154 188.395 36.3971 188.395 35.6324C188.395 34.8253 188.655 34.1833 189.174 33.7066C189.693 33.2346 190.439 32.9939 191.411 32.9939H194.428C194.678 32.9939 194.881 33.1968 194.881 33.447V34.5185C194.833 35.4672 194.649 36.2036 194.324 36.7369C193.998 37.2703 193.592 37.6432 193.092 37.8651V37.8698Z" fill="#007179"/>
<path d="M150.423 31.6486C150.423 29.9163 150.055 28.3161 149.314 26.8482C148.573 25.3802 147.506 24.1907 146.109 23.2797C144.712 22.3687 142.994 21.9109 140.959 21.9109C139.411 21.9109 138.028 22.1847 136.815 22.7275C135.602 23.2703 134.582 24.0066 133.766 24.9271C132.945 25.8522 132.321 26.8954 131.892 28.066C131.462 29.2319 131.25 30.4544 131.25 31.7241V32.418C131.25 33.6452 131.462 34.8394 131.892 36.0053C132.321 37.1712 132.949 38.2285 133.78 39.1772C134.611 40.126 135.644 40.8765 136.881 41.4287C138.118 41.9857 139.543 42.2595 141.162 42.2595C142.781 42.2595 144.164 41.9763 145.392 41.4099C146.614 40.8435 147.634 40.0646 148.441 39.0687C149.125 38.2285 149.621 37.2845 149.923 36.246C150.008 35.9581 149.786 35.6702 149.489 35.6702H145.264C145.099 35.6702 144.943 35.7646 144.868 35.9109C144.617 36.3829 144.216 36.7888 143.659 37.1287C143.013 37.5205 142.182 37.7187 141.162 37.7187C140.053 37.7187 139.152 37.4874 138.458 37.0248C137.764 36.5623 137.254 35.9109 136.933 35.066C136.777 34.6553 136.659 34.2116 136.584 33.7349C136.565 33.6263 136.65 33.5272 136.763 33.5272H149.517C150.017 33.5272 150.423 33.1213 150.423 32.6209V31.6533V31.6486ZM136.971 28.9959C137.315 28.1509 137.825 27.5184 138.495 27.0889C139.166 26.6594 139.987 26.447 140.955 26.447C141.922 26.447 142.692 26.6594 143.329 27.0889C143.966 27.5184 144.438 28.1273 144.75 28.925C144.896 29.2932 145.005 29.7039 145.08 30.1523C145.099 30.2609 145.014 30.3647 144.901 30.3647H136.806C136.692 30.3647 136.607 30.2608 136.626 30.1476C136.711 29.7322 136.825 29.3451 136.966 28.9911L136.971 28.9959Z" fill="#007179"/>
<path d="M164.035 22.3215C161.864 22.3215 160.202 23.0484 159.06 24.507C158.395 25.3519 157.927 26.4092 157.649 27.6742C157.621 27.7922 157.451 27.7733 157.451 27.6553V23.0201C157.451 22.7699 157.248 22.567 156.997 22.567H153.467C153.217 22.567 153.014 22.7699 153.014 23.0201V41.1125C153.014 41.3627 153.217 41.5656 153.467 41.5656H158.144C158.395 41.5656 158.598 41.3627 158.598 41.1125V31.894C158.598 30.3458 159.013 29.1658 159.844 28.3586C160.674 27.5515 161.855 27.1455 163.379 27.1455H166.409C166.66 27.1455 166.863 26.9426 166.863 26.6924V22.7794C166.863 22.5292 166.66 22.3263 166.409 22.3263H164.035V22.3215Z" fill="#007179"/>
<path d="M180.098 22.3215C177.926 22.3215 176.265 23.0484 175.123 24.507C174.457 25.3519 173.99 26.4092 173.711 27.6742C173.683 27.7922 173.513 27.7733 173.513 27.6553V23.0201C173.513 22.7699 173.31 22.567 173.06 22.567H169.529C169.279 22.567 169.076 22.7699 169.076 23.0201V41.1125C169.076 41.3627 169.279 41.5656 169.529 41.5656H174.207C174.457 41.5656 174.66 41.3627 174.66 41.1125V31.894C174.66 30.3458 175.075 29.1658 175.906 28.3586C176.737 27.5515 177.917 27.1455 179.442 27.1455H182.472C182.722 27.1455 182.925 26.9426 182.925 26.6924V22.7794C182.925 22.5292 182.722 22.3263 182.472 22.3263H180.098V22.3215Z" fill="#007179"/>
<path d="M134.426 49.0944C133.921 48.8584 133.303 48.7404 132.571 48.7404H129.847C129.767 48.7404 129.701 48.8064 129.701 48.8867V57.5246C129.701 57.6048 129.767 57.6709 129.847 57.6709H130.98C131.061 57.6709 131.127 57.6048 131.127 57.5246V54.8813C131.127 54.801 131.193 54.735 131.273 54.735H132.576C133.307 54.735 133.926 54.617 134.431 54.3762C134.936 54.1355 135.323 53.8004 135.582 53.3614C135.842 52.9224 135.97 52.4126 135.97 51.8273V51.6338C135.97 51.0438 135.837 50.5293 135.582 50.095C135.323 49.6608 134.941 49.3257 134.431 49.0896L134.426 49.0944ZM134.322 52.6345C134.185 52.9035 133.987 53.1112 133.727 53.267C133.468 53.4228 133.142 53.4983 132.755 53.4983H131.268C131.188 53.4983 131.122 53.4322 131.122 53.3519V50.1139C131.122 50.0337 131.188 49.9676 131.268 49.9676H132.755C133.142 49.9676 133.468 50.0431 133.727 50.1942C133.987 50.3452 134.185 50.5529 134.322 50.8219C134.459 51.091 134.53 51.3931 134.53 51.7329C134.53 52.0728 134.459 52.3654 134.322 52.6345Z" fill="#73929B"/>
<path d="M139.836 48.7923H138.703C138.623 48.7923 138.557 48.8584 138.557 48.9386V57.5293C138.557 57.6096 138.623 57.6757 138.703 57.6757H143.56C143.64 57.6757 143.706 57.6096 143.706 57.5293V56.5523C143.706 56.472 143.64 56.4059 143.56 56.4059H140.128C140.048 56.4059 139.982 56.3399 139.982 56.2596V48.9339C139.982 48.8537 139.916 48.7876 139.836 48.7876V48.7923Z" fill="#73929B"/>
<path d="M148.86 48.8867L145.834 57.4774C145.801 57.5718 145.872 57.6709 145.971 57.6709H147.076C147.137 57.6709 147.194 57.6331 147.213 57.5718L148.02 55.2353C148.039 55.1787 148.095 55.1362 148.157 55.1362H151.994C152.056 55.1362 152.112 55.1739 152.131 55.2306L152.967 57.5671C152.985 57.6237 153.042 57.6615 153.103 57.6615H154.255C154.354 57.6615 154.425 57.5623 154.392 57.4679L151.286 48.8772C151.267 48.8206 151.211 48.7828 151.149 48.7828H148.992C148.931 48.7828 148.874 48.8206 148.855 48.882L148.86 48.8867ZM148.548 53.7201L149.799 50.1186C149.818 50.062 149.875 50.0195 149.936 50.0195H150.172C150.234 50.0195 150.29 50.0573 150.309 50.1139L151.598 53.7154C151.631 53.8098 151.56 53.9089 151.461 53.9089H148.69C148.591 53.9089 148.52 53.8098 148.553 53.7154L148.548 53.7201Z" fill="#73929B"/>
<path d="M155.449 50.0573H157.8C157.88 50.0573 157.946 50.1234 157.946 50.2036V57.5293C157.946 57.6096 158.012 57.6757 158.093 57.6757H159.226C159.306 57.6757 159.372 57.6096 159.372 57.5293V50.2036C159.372 50.1234 159.438 50.0573 159.518 50.0573H161.869C161.949 50.0573 162.015 49.9912 162.015 49.911V48.9339C162.015 48.8537 161.949 48.7876 161.869 48.7876H155.459C155.379 48.7876 155.312 48.8537 155.312 48.9339V49.911C155.312 49.9912 155.379 50.0573 155.459 50.0573H155.449Z" fill="#73929B"/>
<path d="M165.791 48.7922H164.658C164.577 48.7922 164.512 48.8577 164.512 48.9386V57.5245C164.512 57.6053 164.577 57.6709 164.658 57.6709H165.791C165.872 57.6709 165.937 57.6053 165.937 57.5245V48.9386C165.937 48.8577 165.872 48.7922 165.791 48.7922Z" fill="#73929B"/>
<path d="M175.997 56.4436H175.851L171.707 48.8678C171.683 48.8206 171.631 48.7922 171.579 48.7922H169.488C169.408 48.7922 169.342 48.8583 169.342 48.9386V57.5292C169.342 57.6095 169.408 57.6756 169.488 57.6756H170.522C170.602 57.6756 170.668 57.6095 170.668 57.5292V50.0242H170.829L174.973 57.6C174.997 57.6473 175.048 57.6756 175.1 57.6756H177.206C177.286 57.6756 177.352 57.6095 177.352 57.5292V48.9386C177.352 48.8583 177.286 48.7922 177.206 48.7922H176.144C176.063 48.7922 175.997 48.8583 175.997 48.9386V56.4436Z" fill="#73929B"/>
<path d="M186.632 54.2393C186.632 54.716 186.542 55.1314 186.363 55.4807C186.183 55.83 185.924 56.099 185.584 56.2973C185.244 56.4955 184.819 56.5899 184.319 56.5899C183.819 56.5899 183.403 56.4908 183.054 56.2926C182.705 56.0943 182.44 55.8206 182.261 55.4713C182.082 55.122 181.992 54.7113 181.992 54.244V48.9386C181.992 48.8583 181.926 48.7922 181.846 48.7922H180.713C180.632 48.7922 180.566 48.8583 180.566 48.9386V54.1213C180.566 54.8765 180.708 55.5373 180.996 56.1038C181.284 56.6702 181.704 57.1139 182.261 57.4254C182.818 57.7369 183.498 57.8927 184.31 57.8927C185.121 57.8927 185.815 57.7369 186.367 57.4254C186.92 57.1139 187.335 56.6749 187.618 56.1038C187.902 55.5373 188.043 54.8765 188.043 54.1213V48.9386C188.043 48.8583 187.977 48.7922 187.897 48.7922H186.764C186.684 48.7922 186.618 48.8583 186.618 48.9386V54.244L186.632 54.2393Z" fill="#73929B"/>
<path d="M198.38 48.7922C198.323 48.7922 198.271 48.8253 198.248 48.8819L195.84 54.4517H195.633L193.211 48.8819C193.188 48.83 193.136 48.7922 193.079 48.7922H191.408C191.328 48.7922 191.262 48.8583 191.262 48.9386V57.5292C191.262 57.6095 191.328 57.6756 191.408 57.6756H192.418C192.498 57.6756 192.564 57.6095 192.564 57.5292V50.4868L194.849 55.7639C194.873 55.8158 194.925 55.8536 194.981 55.8536H196.383C196.44 55.8536 196.492 55.8205 196.515 55.7639L198.8 50.4585V57.5292C198.8 57.6095 198.866 57.6756 198.946 57.6756H200.065C200.145 57.6756 200.211 57.6095 200.211 57.5292V48.9386C200.211 48.8583 200.145 48.7922 200.065 48.7922H198.37H198.38Z" fill="#73929B"/>
</svg>
