<svg width="201" height="59" viewBox="0 0 201 59" fill="none" xmlns="http://www.w3.org/2000/svg">
<path d="M55.7669 9.05311H45.4299C42.0362 9.05311 38.751 10.2237 36.1172 12.3666L19.2713 26.0926C18.4169 26.7864 17.1425 26.5127 16.6516 25.5309L11.4548 15.1326C11.0772 14.3774 10.3031 13.9006 9.45822 13.9006H0.697758C0.320152 13.9006 0.0133466 13.5938 0.0133466 13.2162L0.00390625 5.53193C0.00390625 5.15433 0.31071 4.8428 0.688316 4.8428H7.35307C8.65109 4.8428 9.84055 5.57913 10.4258 6.74027L15.6746 17.2424C15.9672 17.8325 16.7366 17.9977 17.2463 17.5823L35.0363 3.08693C37.486 1.09034 40.5494 0 43.7071 0H55.7763C56.1539 0 56.4655 0.306806 56.4607 0.689133L56.4513 8.37342C56.4513 8.75102 56.1445 9.05783 55.7669 9.05783V9.05311Z" fill="white"/>
<path d="M55.7775 25.3137H48.0602C44.7042 25.3137 41.4473 26.4701 38.8466 28.5942L21.9581 42.3532C21.1038 43.0471 19.8294 42.7733 19.3385 41.7915L14.0898 31.2988C13.7405 30.6002 13.0277 30.1613 12.2489 30.1613H0.703619C0.326013 30.1613 0.019206 29.8544 0.019206 29.4768L0.00976562 21.7926C0.00976562 21.4149 0.316571 21.1034 0.694177 21.1034H10.0352C11.3332 21.1034 12.5227 21.8398 13.108 23.0009L18.3567 33.5031C18.6493 34.0931 19.4187 34.2583 19.9285 33.8429L37.7185 19.3476C40.1682 17.351 43.2315 16.2606 46.3892 16.2606H55.7869C56.1645 16.2606 56.476 16.5674 56.4713 16.9498L56.4619 24.634C56.4619 25.0116 56.1551 25.3184 55.7775 25.3184V25.3137Z" fill="white"/>
<path d="M55.7819 41.5745H50.7408C47.3849 41.5745 44.128 42.7309 41.5272 44.8549L24.6388 58.6139C23.7845 59.3078 22.51 59.034 22.0192 58.0523L16.7704 47.5595C16.4211 46.861 15.7084 46.422 14.9296 46.422H0.693852C0.316246 46.422 0.00944037 46.1152 0.00944037 45.7376L0 38.0533C0 37.6757 0.306807 37.3642 0.684413 37.3642H12.7206C14.0186 37.3642 15.2081 38.1005 15.7934 39.2616L21.0421 49.7638C21.3348 50.3538 22.1041 50.519 22.6139 50.1036L40.4039 35.6083C42.8536 33.6117 45.9169 32.5214 49.0746 32.5214H55.796C56.1736 32.5214 56.4852 32.8282 56.4804 33.2105L56.471 40.8948C56.471 41.2724 56.1642 41.5792 55.7866 41.5792L55.7819 41.5745Z" fill="white"/>
<path d="M111.775 16.256H106.021C105.771 16.256 105.568 16.4589 105.568 16.7091V19.8952C105.568 20.1453 105.771 20.3483 106.021 20.3483H107.371C107.622 20.3483 107.825 20.5513 107.825 20.8014V40.116C107.825 40.9137 108.471 41.565 109.274 41.565H112.955C113.205 41.565 113.408 41.3621 113.408 41.1119V17.8844C113.408 16.9829 112.682 16.256 111.78 16.256H111.775Z" fill="white"/>
<path d="M129.697 26.2012V23.4683C129.697 22.9679 129.291 22.562 128.791 22.562H124.33C124.231 22.562 124.151 22.4818 124.151 22.3826V18.3375C124.151 17.8372 123.745 17.4313 123.245 17.4313H119.436C119.186 17.4313 118.983 17.6342 118.983 17.8844L118.973 22.3826C118.973 22.4818 118.893 22.562 118.794 22.562H116.523C116.273 22.562 116.07 22.765 116.07 23.0151V26.2012C116.07 26.4513 116.273 26.6543 116.523 26.6543H118.784C118.883 26.6543 118.964 26.7345 118.964 26.8337L118.95 34.1403C118.95 36.0614 119.228 37.5766 119.78 38.6999C120.337 39.8186 121.201 40.6257 122.381 41.1072C123.561 41.5934 125.109 41.8341 127.026 41.8341H129.244C129.494 41.8341 129.697 41.6311 129.697 41.3809V38.025C129.697 37.5246 129.291 37.1187 128.791 37.1187H126.889C126.011 37.1187 125.336 36.8827 124.859 36.406C124.387 35.934 124.146 35.2448 124.146 34.3433V26.8289C124.146 26.7298 124.227 26.6496 124.326 26.6496H129.239C129.49 26.6496 129.692 26.4466 129.692 26.1965L129.697 26.2012Z" fill="white"/>
<path d="M81.8362 16.9262L76.6111 36.6797C76.5686 36.8402 76.427 36.9488 76.2618 36.9488H75.6199C75.4594 36.9488 75.3178 36.8402 75.2706 36.6844L69.6207 16.9073C69.5074 16.5203 69.1534 16.2512 68.7522 16.2512H64.1501C63.848 16.2512 63.6309 16.5439 63.7158 16.8365L70.9564 40.536C71.1405 41.1449 71.7022 41.5603 72.3394 41.5603H79.429C80.0756 41.5603 80.6468 41.1307 80.8214 40.5077L87.5333 16.8271C87.6136 16.5391 87.3965 16.2512 87.0991 16.2512H82.7094C82.2988 16.2512 81.9401 16.5297 81.8362 16.9262Z" fill="white"/>
<path d="M102.807 25.5969C102.113 24.4783 101.103 23.6381 99.7715 23.0859C98.4405 22.5289 96.8073 22.2551 94.8674 22.2551C94.1971 22.2551 93.4797 22.2693 92.7198 22.2882C91.9551 22.3118 91.2188 22.3448 90.5013 22.392C90.1237 22.4156 89.765 22.4392 89.4299 22.4675C88.9579 22.5006 88.5944 22.8971 88.5944 23.3691V26.7298C88.5944 26.9894 88.8115 27.197 89.0711 27.1829C89.6612 27.1498 90.3078 27.1168 91.0017 27.0885C91.889 27.0554 92.7528 27.0271 93.5835 27.0035C94.4143 26.9799 95.0845 26.9705 95.5943 26.9705C96.6091 26.9705 97.3502 27.2065 97.8127 27.6832C98.195 28.075 98.4216 28.665 98.4877 29.4202C98.5113 29.6845 98.3036 29.9158 98.0393 29.9158H95.0798C93.3947 29.9158 91.9032 30.1329 90.6099 30.5625C89.3166 30.992 88.3112 31.6481 87.5938 32.5402C86.8763 33.4275 86.5176 34.5698 86.5176 35.9528C86.5176 37.2225 86.8055 38.3175 87.3861 39.2285C87.9619 40.1395 88.7691 40.8428 89.7933 41.3242C90.8223 41.8104 92.0165 42.0511 93.3806 42.0511C94.7447 42.0511 95.8114 41.8104 96.7271 41.3242C97.6381 40.8381 98.3555 40.1442 98.8747 39.2427C99.0258 38.9784 99.1579 38.6999 99.2712 38.3978C99.309 38.3034 99.4459 38.3317 99.4459 38.4308V41.1118C99.4459 41.362 99.6488 41.565 99.899 41.565H103.128C103.529 41.565 103.85 41.2393 103.85 40.8428V29.9205C103.85 28.1647 103.505 26.725 102.811 25.6064L102.807 25.5969ZM96.7224 37.8691C96.2268 38.091 95.6651 38.1995 95.042 38.1995C94.0697 38.1995 93.3239 37.9635 92.8047 37.4868C92.2855 37.0148 92.0259 36.3965 92.0259 35.6318C92.0259 34.8247 92.2855 34.1828 92.8047 33.706C93.3239 33.234 94.0697 32.9933 95.042 32.9933H98.0582C98.3083 32.9933 98.5113 33.1963 98.5113 33.4464V34.5179C98.4641 35.4666 98.28 36.203 97.9543 36.7363C97.6286 37.2697 97.2227 37.6426 96.7224 37.8644V37.8691Z" fill="white"/>
<path d="M199.172 25.5969C198.478 24.4783 197.468 23.6381 196.137 23.0859C194.806 22.5289 193.173 22.2551 191.233 22.2551C190.562 22.2551 189.845 22.2693 189.085 22.2882C188.32 22.3118 187.584 22.3448 186.867 22.392C186.489 22.4156 186.13 22.4392 185.795 22.4675C185.323 22.5006 184.96 22.8971 184.96 23.3691V26.7298C184.96 26.9894 185.177 27.197 185.436 27.1829C186.026 27.1498 186.673 27.1168 187.367 27.0885C188.254 27.0554 189.118 27.0271 189.949 27.0035C190.78 26.9799 191.45 26.9705 191.96 26.9705C192.974 26.9705 193.715 27.2065 194.178 27.6832C194.56 28.075 194.787 28.665 194.853 29.4202C194.877 29.6845 194.669 29.9158 194.405 29.9158H191.445C189.76 29.9158 188.268 30.1329 186.975 30.5625C185.682 30.992 184.676 31.6481 183.959 32.5402C183.242 33.4275 182.883 34.5698 182.883 35.9528C182.883 37.2225 183.171 38.3175 183.751 39.2285C184.327 40.1395 185.134 40.8428 186.159 41.3242C187.188 41.8104 188.382 42.0511 189.746 42.0511C191.11 42.0511 192.177 41.8104 193.092 41.3242C194.003 40.8381 194.721 40.1442 195.24 39.2427C195.391 38.9784 195.523 38.6999 195.636 38.3978C195.674 38.3034 195.811 38.3317 195.811 38.4308V41.1118C195.811 41.362 196.014 41.565 196.264 41.565H199.493C199.894 41.565 200.215 41.2393 200.215 40.8428V29.9205C200.215 28.1647 199.87 26.725 199.177 25.6064L199.172 25.5969ZM193.088 37.8691C192.592 38.091 192.03 38.1995 191.407 38.1995C190.435 38.1995 189.689 37.9635 189.17 37.4868C188.651 37.0148 188.391 36.3965 188.391 35.6318C188.391 34.8247 188.651 34.1828 189.17 33.706C189.689 33.234 190.435 32.9933 191.407 32.9933H194.423C194.674 32.9933 194.877 33.1963 194.877 33.4464V34.5179C194.829 35.4666 194.645 36.203 194.32 36.7363C193.994 37.2697 193.588 37.6426 193.088 37.8644V37.8691Z" fill="white"/>
<path d="M150.419 31.6482C150.419 29.9159 150.051 28.3158 149.31 26.8478C148.569 25.3799 147.502 24.1904 146.105 23.2795C144.708 22.3685 142.99 21.9106 140.955 21.9106C139.407 21.9106 138.024 22.1844 136.811 22.7272C135.598 23.27 134.578 24.0064 133.762 24.9268C132.941 25.8519 132.318 26.895 131.888 28.0656C131.458 29.2315 131.246 30.454 131.246 31.7237V32.4175C131.246 33.6448 131.458 34.8389 131.888 36.0048C132.318 37.1707 132.945 38.2279 133.776 39.1767C134.607 40.1254 135.64 40.8759 136.877 41.4282C138.114 41.9851 139.539 42.2589 141.158 42.2589C142.777 42.2589 144.16 41.9757 145.387 41.4093C146.61 40.8429 147.629 40.0641 148.437 39.0681C149.121 38.228 149.617 37.2839 149.919 36.2455C150.004 35.9576 149.782 35.6697 149.484 35.6697H145.26C145.095 35.6697 144.939 35.7641 144.864 35.9104C144.613 36.3824 144.212 36.7883 143.655 37.1282C143.009 37.5199 142.178 37.7182 141.158 37.7182C140.049 37.7182 139.147 37.4869 138.454 37.0243C137.76 36.5618 137.25 35.9104 136.929 35.0655C136.773 34.6549 136.655 34.2112 136.58 33.7344C136.561 33.6259 136.646 33.5268 136.759 33.5268H149.513C150.013 33.5268 150.419 33.1208 150.419 32.6205V31.6529V31.6482ZM136.967 28.9955C137.311 28.1506 137.821 27.5181 138.491 27.0886C139.162 26.659 139.983 26.4466 140.951 26.4466C141.918 26.4466 142.688 26.659 143.325 27.0886C143.962 27.5181 144.434 28.127 144.746 28.9247C144.892 29.2928 145 29.7035 145.076 30.1519C145.095 30.2605 145.01 30.3643 144.897 30.3643H136.802C136.688 30.3643 136.603 30.2605 136.622 30.1472C136.707 29.7318 136.82 29.3448 136.962 28.9908L136.967 28.9955Z" fill="white"/>
<path d="M164.031 22.3213C161.86 22.3213 160.198 23.0482 159.056 24.5067C158.391 25.3516 157.923 26.4089 157.645 27.6739C157.617 27.7919 157.447 27.773 157.447 27.655V23.0199C157.447 22.7697 157.244 22.5667 156.994 22.5667H153.463C153.213 22.5667 153.01 22.7697 153.01 23.0199V41.1119C153.01 41.3621 153.213 41.565 153.463 41.565H158.14C158.391 41.565 158.594 41.3621 158.594 41.1119V31.8936C158.594 30.3454 159.009 29.1654 159.84 28.3583C160.67 27.5511 161.85 27.1452 163.375 27.1452H166.405C166.656 27.1452 166.858 26.9422 166.858 26.6921V22.7791C166.858 22.529 166.656 22.326 166.405 22.326H164.031V22.3213Z" fill="white"/>
<path d="M180.094 22.3213C177.922 22.3213 176.261 23.0482 175.119 24.5067C174.453 25.3516 173.986 26.4089 173.707 27.6739C173.679 27.7919 173.509 27.773 173.509 27.655V23.0199C173.509 22.7697 173.306 22.5667 173.056 22.5667H169.525C169.275 22.5667 169.072 22.7697 169.072 23.0199V41.1119C169.072 41.3621 169.275 41.565 169.525 41.565H174.203C174.453 41.565 174.656 41.3621 174.656 41.1119V31.8936C174.656 30.3454 175.071 29.1654 175.902 28.3583C176.733 27.5511 177.913 27.1452 179.438 27.1452H182.468C182.718 27.1452 182.921 26.9422 182.921 26.6921V22.7791C182.921 22.529 182.718 22.326 182.468 22.326H180.094V22.3213Z" fill="white"/>
<path d="M134.424 49.0935C133.919 48.8575 133.301 48.7395 132.569 48.7395H129.846C129.765 48.7395 129.699 48.8056 129.699 48.8858V57.5236C129.699 57.6038 129.765 57.6699 129.846 57.6699H130.978C131.059 57.6699 131.125 57.6038 131.125 57.5236V54.8803C131.125 54.8001 131.191 54.734 131.271 54.734H132.574C133.305 54.734 133.924 54.616 134.429 54.3753C134.934 54.1346 135.321 53.7994 135.58 53.3605C135.84 52.9215 135.967 52.4117 135.967 51.8264V51.6329C135.967 51.0429 135.835 50.5284 135.58 50.0942C135.321 49.6599 134.938 49.3248 134.429 49.0888L134.424 49.0935ZM134.32 52.6336C134.183 52.9026 133.985 53.1103 133.725 53.2661C133.466 53.4218 133.14 53.4973 132.753 53.4973H131.266C131.186 53.4973 131.12 53.4313 131.12 53.351V50.113C131.12 50.0328 131.186 49.9667 131.266 49.9667H132.753C133.14 49.9667 133.466 50.0422 133.725 50.1933C133.985 50.3443 134.183 50.552 134.32 50.8211C134.457 51.0901 134.528 51.3922 134.528 51.732C134.528 52.0719 134.457 52.3645 134.32 52.6336Z" fill="white"/>
<path d="M139.834 48.7915H138.701C138.621 48.7915 138.555 48.8575 138.555 48.9378V57.5283C138.555 57.6086 138.621 57.6746 138.701 57.6746H143.558C143.638 57.6746 143.704 57.6086 143.704 57.5283V56.5513C143.704 56.471 143.638 56.4049 143.558 56.4049H140.126C140.046 56.4049 139.98 56.3389 139.98 56.2586V48.9331C139.98 48.8528 139.914 48.7867 139.834 48.7867V48.7915Z" fill="white"/>
<path d="M148.858 48.8858L145.832 57.4764C145.799 57.5708 145.87 57.6699 145.969 57.6699H147.074C147.135 57.6699 147.192 57.6321 147.211 57.5708L148.018 55.2343C148.037 55.1777 148.093 55.1352 148.155 55.1352H151.992C152.053 55.1352 152.11 55.173 152.129 55.2296L152.964 57.566C152.983 57.6227 153.04 57.6604 153.101 57.6604H154.253C154.352 57.6604 154.423 57.5613 154.39 57.4669L151.284 48.8764C151.265 48.8197 151.209 48.782 151.147 48.782H148.99C148.929 48.782 148.872 48.8197 148.853 48.8811L148.858 48.8858ZM148.546 53.7192L149.797 50.1178C149.816 50.0611 149.873 50.0186 149.934 50.0186H150.17C150.232 50.0186 150.288 50.0564 150.307 50.113L151.596 53.7145C151.629 53.8089 151.558 53.908 151.459 53.908H148.688C148.589 53.908 148.518 53.8089 148.551 53.7145L148.546 53.7192Z" fill="white"/>
<path d="M155.447 50.0564H157.798C157.878 50.0564 157.944 50.1225 157.944 50.2028V57.5283C157.944 57.6086 158.01 57.6746 158.091 57.6746H159.223C159.304 57.6746 159.37 57.6086 159.37 57.5283V50.2028C159.37 50.1225 159.436 50.0564 159.516 50.0564H161.867C161.947 50.0564 162.013 49.9904 162.013 49.9101V48.9331C162.013 48.8528 161.947 48.7867 161.867 48.7867H155.457C155.377 48.7867 155.311 48.8528 155.311 48.9331V49.9101C155.311 49.9904 155.377 50.0564 155.457 50.0564H155.447Z" fill="white"/>
<path d="M165.789 48.7914H164.656C164.575 48.7914 164.51 48.8569 164.51 48.9377V57.5235C164.51 57.6043 164.575 57.6698 164.656 57.6698H165.789C165.87 57.6698 165.935 57.6043 165.935 57.5235V48.9377C165.935 48.8569 165.87 48.7914 165.789 48.7914Z" fill="white"/>
<path d="M175.993 56.4426H175.847L171.703 48.8669C171.679 48.8197 171.627 48.7914 171.575 48.7914H169.484C169.404 48.7914 169.338 48.8575 169.338 48.9377V57.5282C169.338 57.6085 169.404 57.6746 169.484 57.6746H170.518C170.598 57.6746 170.664 57.6085 170.664 57.5282V50.0233H170.825L174.969 57.599C174.993 57.6462 175.044 57.6746 175.096 57.6746H177.202C177.282 57.6746 177.348 57.6085 177.348 57.5282V48.9377C177.348 48.8575 177.282 48.7914 177.202 48.7914H176.14C176.059 48.7914 175.993 48.8575 175.993 48.9377V56.4426Z" fill="white"/>
<path d="M186.628 54.2383C186.628 54.7151 186.538 55.1304 186.359 55.4797C186.179 55.829 185.92 56.0981 185.58 56.2963C185.24 56.4945 184.815 56.5889 184.315 56.5889C183.815 56.5889 183.399 56.4898 183.05 56.2916C182.701 56.0933 182.436 55.8196 182.257 55.4703C182.078 55.121 181.988 54.7104 181.988 54.2431V48.9377C181.988 48.8575 181.922 48.7914 181.842 48.7914H180.709C180.629 48.7914 180.562 48.8575 180.562 48.9377V54.1203C180.562 54.8756 180.704 55.5364 180.992 56.1028C181.28 56.6692 181.7 57.1129 182.257 57.4244C182.814 57.7359 183.494 57.8917 184.306 57.8917C185.117 57.8917 185.811 57.7359 186.363 57.4244C186.916 57.1129 187.331 56.6739 187.614 56.1028C187.898 55.5364 188.039 54.8756 188.039 54.1203V48.9377C188.039 48.8575 187.973 48.7914 187.893 48.7914H186.76C186.68 48.7914 186.614 48.8575 186.614 48.9377V54.2431L186.628 54.2383Z" fill="white"/>
<path d="M198.376 48.7914C198.319 48.7914 198.267 48.8244 198.244 48.8811L195.836 54.4507H195.629L193.207 48.8811C193.184 48.8291 193.132 48.7914 193.075 48.7914H191.404C191.324 48.7914 191.258 48.8575 191.258 48.9377V57.5282C191.258 57.6085 191.324 57.6746 191.404 57.6746H192.414C192.494 57.6746 192.561 57.6085 192.561 57.5282V50.4859L194.845 55.7629C194.869 55.8149 194.921 55.8526 194.977 55.8526H196.379C196.436 55.8526 196.488 55.8196 196.511 55.7629L198.796 50.4576V57.5282C198.796 57.6085 198.862 57.6746 198.942 57.6746H200.061C200.141 57.6746 200.207 57.6085 200.207 57.5282V48.9377C200.207 48.8575 200.141 48.7914 200.061 48.7914H198.366H198.376Z" fill="white"/>
</svg>
